<?xml version="1.0" standalone="no"?>
<!DOCTYPE svg PUBLIC "-//W3C//DTD SVG 20010904//EN"
 "http://www.w3.org/TR/2001/REC-SVG-20010904/DTD/svg10.dtd">
<svg version="1.0" xmlns="http://www.w3.org/2000/svg"
 width="1178.000000pt" height="1178.000000pt" viewBox="0 0 1178.000000 1178.000000"
 preserveAspectRatio="xMidYMid meet">
<metadata>
Created by potrace 1.11, written by Peter Selinger 2001-2013
</metadata>
<g transform="translate(0.000000,1178.000000) scale(0.100000,-0.100000)"
fill="#000000" stroke="none">
<path d="M5710 10319 c-102 -27 -408 -110 -680 -184 -508 -138 -644 -174 -670
-180 -33 -8 -688 -185 -735 -199 -27 -8 -117 -33 -200 -55 -82 -22 -267 -71
-410 -110 -143 -39 -285 -77 -315 -85 -63 -16 -251 -67 -490 -132 -91 -25
-214 -58 -275 -74 -60 -16 -308 -83 -550 -148 -242 -66 -572 -155 -733 -198
l-293 -79 3 -147 c2 -81 7 -150 11 -154 3 -4 91 17 194 45 103 29 196 54 206
56 10 2 84 22 165 44 81 22 174 47 207 56 127 34 319 86 555 150 135 36 277
75 315 85 39 10 122 33 185 50 63 17 156 42 205 55 50 13 115 31 145 39 30 8
123 33 205 55 83 23 192 52 242 66 51 15 101 28 110 30 10 2 50 12 88 23 39
11 124 34 190 51 66 18 287 77 490 133 204 55 377 101 385 103 8 2 58 15 110
30 52 14 136 37 185 50 50 13 164 44 255 69 91 24 341 92 555 149 215 58 423
114 462 126 l72 20 173 -45 c95 -25 232 -60 303 -79 72 -18 157 -41 190 -50
33 -9 67 -18 75 -20 8 -2 137 -35 285 -75 292 -77 296 -78 323 -84 9 -2 37 -9
62 -16 25 -7 52 -14 60 -15 8 -2 40 -11 70 -19 73 -19 323 -85 595 -156 258
-67 501 -131 635 -166 205 -55 366 -96 380 -99 8 -2 40 -10 70 -19 47 -13 375
-100 420 -111 19 -4 205 -53 595 -155 165 -44 377 -99 470 -124 94 -24 233
-61 310 -81 432 -114 516 -135 531 -135 10 0 12 33 11 152 l-2 153 -100 26
c-377 100 -492 130 -505 134 -8 1 -103 26 -210 54 -107 29 -202 54 -210 56 -8
2 -96 24 -195 50 -99 26 -247 65 -330 87 -82 21 -190 50 -240 63 -96 25 -347
91 -615 160 -91 24 -208 55 -260 68 -194 52 -255 68 -272 72 -9 2 -51 13 -93
25 -42 12 -84 23 -93 25 -9 2 -80 20 -157 40 -77 20 -147 38 -155 40 -8 2 -40
10 -70 18 -30 9 -108 30 -172 46 -65 17 -171 45 -235 62 -65 17 -125 33 -133
34 -8 2 -60 16 -115 30 -55 15 -107 29 -115 30 -8 2 -85 23 -170 45 -85 23
-171 45 -190 50 -35 8 -254 66 -517 136 -74 19 -142 37 -152 39 -9 2 -51 13
-93 25 -81 22 -110 29 -143 36 -11 2 -103 -19 -205 -47z"/>
<path d="M5845 9319 c-16 -5 -39 -11 -50 -13 -11 -2 -65 -16 -120 -31 -55 -15
-147 -39 -204 -54 -119 -30 -113 -24 -126 -147 -4 -38 -8 -71 -10 -74 -1 -3
-5 -32 -9 -65 -3 -33 -8 -69 -10 -81 -2 -11 -7 -47 -10 -79 -4 -32 -8 -61 -10
-64 -2 -3 -7 -37 -11 -76 -4 -38 -8 -72 -10 -75 -1 -3 -5 -32 -9 -65 -3 -33
-8 -69 -10 -80 -2 -11 -7 -47 -10 -80 -4 -33 -11 -85 -16 -115 -6 -30 -12 -77
-15 -105 -3 -27 -8 -61 -10 -75 -3 -14 -7 -47 -10 -75 -3 -27 -7 -59 -9 -70
-2 -11 -7 -49 -11 -85 -4 -36 -9 -72 -10 -81 -2 -9 -6 -40 -10 -69 -4 -29 -8
-60 -10 -69 -1 -9 -6 -45 -10 -81 -4 -36 -8 -67 -10 -70 -1 -3 -6 -36 -9 -75
-4 -38 -9 -77 -11 -85 -2 -8 -6 -37 -10 -65 -7 -59 -15 -120 -20 -155 -2 -14
-9 -63 -15 -110 -11 -84 -17 -136 -25 -195 -3 -16 -9 -68 -15 -115 -6 -47 -13
-97 -16 -111 -2 -15 -6 -47 -9 -70 -3 -24 -15 -111 -25 -194 -11 -82 -23 -170
-26 -195 -3 -25 -7 -56 -9 -70 -2 -14 -7 -47 -10 -75 -3 -27 -8 -61 -10 -75
-3 -14 -7 -47 -10 -75 -3 -27 -8 -61 -10 -75 -6 -42 -24 -172 -30 -225 -3 -27
-13 -95 -20 -150 -8 -55 -17 -120 -20 -145 -3 -25 -10 -79 -15 -120 -6 -41
-13 -88 -15 -105 -2 -16 -14 -102 -25 -190 -12 -88 -23 -175 -25 -193 -2 -18
-6 -45 -9 -60 -3 -15 -8 -51 -11 -81 -4 -30 -8 -61 -10 -70 -1 -9 -6 -41 -10
-71 -3 -30 -8 -66 -10 -80 -4 -27 -13 -92 -21 -155 -3 -22 -7 -47 -9 -55 -2
-8 -7 -43 -10 -78 -4 -35 -8 -71 -10 -80 -1 -9 -6 -42 -10 -72 -4 -30 -9 -64
-11 -75 -2 -11 -6 -38 -9 -60 -2 -22 -12 -89 -20 -150 -9 -60 -18 -128 -21
-150 -2 -22 -7 -51 -9 -65 -5 -30 -42 -296 -50 -362 -4 -27 -4 -48 0 -48 4 0
142 -32 308 -70 432 -100 414 -97 414 -79 0 8 3 37 7 64 4 28 9 63 11 78 4 27
12 86 20 137 2 14 7 50 10 80 4 30 9 64 11 75 3 11 7 38 9 60 11 83 16 122 25
175 10 59 17 109 25 180 3 25 7 56 10 70 2 14 7 43 10 65 3 22 7 51 10 65 2
14 7 48 10 75 6 45 9 69 20 145 2 14 7 46 10 72 7 45 13 52 45 50 3 0 39 -3
80 -6 212 -15 300 -20 350 -20 62 0 338 18 457 29 28 3 54 2 57 -3 2 -4 8 -35
11 -67 4 -33 9 -68 11 -78 2 -10 6 -48 10 -85 3 -37 7 -69 9 -72 2 -3 6 -33
10 -65 4 -33 8 -71 11 -85 2 -14 11 -81 19 -150 9 -69 18 -136 20 -150 2 -14
7 -47 10 -75 4 -27 8 -61 10 -75 10 -69 15 -109 20 -150 3 -25 7 -54 9 -65 2
-11 7 -51 12 -90 4 -38 8 -72 9 -75 0 -3 5 -31 9 -64 l8 -58 31 7 c18 3 41 8
52 11 11 2 36 7 55 10 19 3 43 7 52 10 10 3 30 7 45 10 16 2 42 7 58 11 17 4
32 7 35 8 3 0 21 4 40 8 49 10 64 13 155 32 44 9 87 18 95 20 8 2 50 10 92 19
42 9 80 16 84 16 5 0 1 61 -11 140 -2 14 -8 59 -14 100 -6 41 -13 91 -15 110
-3 19 -12 85 -20 145 -9 61 -18 126 -21 145 -3 19 -7 53 -10 75 -7 57 -25 196
-30 225 -2 14 -7 48 -10 75 -3 28 -8 61 -10 75 -6 29 -10 63 -25 180 -6 47
-13 96 -15 110 -8 56 -15 107 -20 150 -3 25 -8 56 -10 70 -2 14 -7 49 -10 79
-4 30 -8 61 -10 70 -1 9 -6 41 -9 72 -4 31 -8 65 -10 75 -2 11 -7 44 -11 74
-3 30 -8 66 -10 80 -2 14 -6 45 -10 70 -3 25 -8 56 -10 70 -2 14 -7 50 -10 80
-3 30 -8 66 -10 80 -5 27 -12 80 -20 145 -2 22 -7 56 -10 75 -2 19 -7 55 -10
80 -4 25 -8 56 -10 70 -2 14 -6 48 -10 75 -3 28 -7 59 -9 70 -2 11 -7 47 -11
80 -4 32 -8 67 -10 77 -2 9 -6 43 -10 75 -3 32 -8 72 -10 88 -3 17 -7 48 -10
70 -3 22 -8 54 -10 70 -11 78 -17 120 -55 410 -22 171 -43 326 -46 345 -2 19
-7 53 -9 75 -3 22 -10 72 -15 110 -5 39 -12 90 -15 115 -3 25 -8 59 -10 75 -3
17 -7 50 -10 75 -3 25 -10 74 -15 110 -9 63 -12 84 -26 200 -3 30 -7 57 -9 60
-2 3 -6 34 -10 70 -4 36 -8 72 -10 80 -1 8 -6 40 -10 70 -3 30 -8 66 -10 80
-3 21 -11 80 -30 225 -2 17 -9 66 -15 110 -14 105 -18 130 -26 190 -3 28 -8
57 -9 65 -2 9 -6 43 -10 75 -4 33 -9 68 -11 79 -2 10 -6 44 -9 75 -4 31 -8 63
-10 71 -2 8 -7 40 -10 70 -10 94 -25 157 -38 157 -7 0 -50 10 -97 23 -47 12
-92 23 -100 25 -8 2 -62 15 -120 30 -105 27 -124 31 -157 39 -10 2 -46 11 -79
20 -69 18 -95 19 -139 5z m69 -1569 c3 -41 8 -86 10 -100 3 -14 10 -68 16
-120 6 -52 13 -106 15 -120 4 -26 8 -53 25 -190 6 -47 13 -98 16 -115 2 -16 6
-43 8 -60 6 -43 46 -325 51 -355 12 -72 47 -310 51 -345 3 -22 7 -51 10 -65 3
-14 8 -41 10 -60 6 -47 12 -93 23 -160 6 -30 12 -77 15 -105 3 -27 8 -61 10
-75 3 -14 10 -60 16 -103 6 -43 13 -88 15 -100 7 -44 15 -99 20 -140 3 -23 7
-51 9 -63 2 -12 7 -45 11 -75 3 -30 11 -83 16 -119 6 -36 12 -83 15 -105 2
-22 6 -50 8 -62 3 -12 8 -51 11 -86 5 -50 4 -64 -7 -64 -13 0 -124 -9 -248
-20 -94 -8 -166 -8 -240 0 -36 4 -92 10 -125 14 -33 3 -67 7 -75 9 -8 1 -21 3
-28 3 -8 1 -11 11 -8 29 2 15 7 52 11 82 4 30 8 66 10 80 2 14 7 50 10 80 3
30 8 66 10 80 2 14 6 50 10 81 3 31 7 65 9 75 2 11 7 51 10 89 4 39 9 81 11
95 2 14 7 50 11 80 3 30 7 66 9 80 2 14 6 54 10 90 3 36 8 76 10 90 2 14 6 50
10 80 3 30 7 71 10 90 3 19 7 58 10 85 3 28 7 68 10 90 14 113 33 281 40 350
3 33 8 71 10 85 3 14 7 52 11 85 7 78 13 133 19 170 2 17 7 50 10 75 2 25 12
106 20 180 9 74 18 155 21 180 2 25 7 62 10 82 7 55 11 86 18 153 4 33 9 69
11 80 2 11 4 26 4 34 2 34 9 0 15 -69z"/>
<path d="M3439 8865 c-3 -2 -34 -11 -70 -19 -35 -8 -199 -49 -364 -91 -165
-42 -307 -78 -315 -80 -8 -1 -35 -8 -60 -15 -25 -7 -52 -13 -60 -15 -8 -2
-240 -60 -515 -129 -275 -70 -509 -129 -520 -131 -153 -34 -712 -181 -717
-189 -10 -16 -8 -646 3 -646 4 0 73 11 151 25 79 14 159 28 178 31 19 2 55 9
80 14 25 5 101 19 170 30 137 23 164 28 196 34 12 2 38 7 58 10 l36 6 0 -88
c0 -48 2 -1016 3 -2151 l3 -2065 69 -18 c39 -10 79 -20 90 -22 11 -2 38 -9 60
-14 22 -6 51 -13 65 -16 24 -4 270 -63 380 -91 96 -24 184 -44 187 -42 1 2 3
1050 4 2330 1 1280 4 2327 8 2328 3 0 13 2 21 4 15 3 192 33 240 40 14 3 84
14 155 25 72 12 146 23 165 26 113 18 302 53 306 57 5 5 17 719 14 845 0 20
-10 29 -21 17z"/>
<path d="M8630 8746 c-3 -311 -1 -5669 2 -5671 2 -3 80 16 173 40 94 25 183
48 199 51 16 2 32 7 35 9 6 3 298 79 776 200 116 30 257 70 315 90 435 150
737 412 887 768 36 86 79 244 91 334 10 80 9 745 -1 812 -51 328 -213 558
-487 692 l-87 43 66 33 c175 90 297 226 370 414 29 73 34 92 47 169 3 19 8 38
10 41 15 24 22 429 10 555 -25 252 -94 454 -214 624 -108 153 -304 311 -503
404 -89 41 -304 119 -359 130 -14 3 -108 25 -210 51 -278 69 -372 91 -520 125
-134 30 -187 42 -245 56 -16 4 -37 8 -45 10 -8 2 -81 18 -162 37 l-148 34 0
-51z m890 -920 c25 -4 59 -8 75 -11 41 -6 102 -15 150 -21 187 -24 286 -64
365 -150 42 -45 92 -141 104 -199 3 -16 9 -41 12 -55 13 -51 11 -544 -1 -617
-30 -174 -119 -279 -272 -321 -57 -15 -232 -19 -433 -9 l-75 3 -3 685 c-1 376
0 690 3 696 2 7 10 11 17 8 7 -2 33 -6 58 -9z m460 -2140 c152 -26 254 -116
301 -266 31 -100 34 -150 34 -525 0 -379 -3 -408 -56 -520 -62 -132 -188 -211
-384 -240 -22 -3 -67 -10 -100 -15 -33 -5 -82 -12 -110 -16 -27 -3 -57 -7 -65
-9 -8 -1 -40 -6 -70 -10 -30 -4 -63 -9 -72 -11 -17 -3 -18 41 -18 806 l0 809
68 3 c124 5 427 2 472 -6z"/>
<path d="M11360 3232 c-47 -12 -119 -32 -160 -43 -41 -11 -106 -29 -145 -39
-97 -25 -666 -179 -1170 -315 -231 -63 -539 -146 -685 -185 -146 -40 -330 -90
-410 -111 -80 -22 -154 -42 -165 -44 -10 -3 -78 -21 -150 -40 -167 -46 -260
-71 -535 -145 -124 -33 -247 -67 -275 -74 -81 -24 -619 -168 -636 -171 -9 -2
-49 -13 -89 -25 -40 -12 -81 -23 -92 -25 -10 -2 -53 -14 -96 -25 -79 -22 -585
-159 -612 -165 -8 -2 -62 -17 -120 -33 l-105 -28 -255 67 c-140 36 -327 85
-415 108 -88 23 -221 58 -295 78 -163 43 -469 123 -491 128 -24 5 -317 83
-359 95 -19 5 -181 48 -360 94 -179 47 -361 95 -405 106 -94 25 -383 100 -405
105 -8 2 -143 38 -300 80 -157 42 -294 78 -305 80 -11 3 -81 21 -155 40 -74
20 -143 38 -152 40 -10 2 -59 15 -110 29 -143 39 -330 87 -358 92 -14 2 -36 9
-50 14 -20 7 -304 82 -360 95 -8 2 -49 13 -90 24 -90 24 -339 89 -540 141
l-145 37 -3 -145 c-1 -81 -1 -151 2 -157 2 -7 37 -20 78 -29 40 -10 140 -36
222 -58 82 -22 156 -41 165 -43 9 -3 43 -11 76 -20 33 -8 67 -17 75 -19 8 -2
121 -32 250 -66 129 -34 242 -64 250 -66 8 -2 76 -19 150 -39 74 -20 143 -38
154 -40 20 -5 321 -84 456 -120 155 -42 404 -107 420 -110 8 -2 85 -22 170
-44 85 -23 259 -68 385 -101 246 -64 391 -102 575 -151 63 -17 131 -35 150
-39 19 -4 62 -15 95 -24 121 -33 328 -88 347 -91 12 -3 35 -9 53 -15 18 -6 41
-12 53 -15 21 -4 280 -71 487 -127 115 -31 289 -76 315 -82 8 -2 77 -20 153
-40 76 -20 208 -55 294 -76 85 -22 159 -43 164 -45 4 -3 48 5 96 19 48 13 165
44 258 69 174 47 201 55 390 106 418 113 615 166 715 192 63 16 171 46 240 66
69 19 134 37 144 39 22 4 230 60 296 79 25 7 122 34 215 59 251 67 265 71 450
121 94 25 211 57 260 70 50 13 164 44 255 68 196 54 642 174 825 223 72 19
144 38 160 43 17 6 107 30 200 55 94 25 262 70 375 101 113 31 212 57 220 59
8 3 60 16 115 31 55 15 154 42 220 59 l120 33 0 109 c0 60 -2 129 -5 154 l-5
45 -85 -23z"/>
</g>
</svg>
